<svg width="99" height="66" viewBox="0 0 99 66" fill="none" xmlns="http://www.w3.org/2000/svg">
<g clip-path="url(#clip0)">
<path d="M53.5098 52.4179H54.1145V52.0467H54.1328C54.3095 52.316 54.5791 52.4917 54.9236 52.4917C55.9653 52.4917 56.0586 51.1933 56.0586 49.9879C56.0586 48.912 55.9846 47.586 54.8772 47.586C54.5332 47.586 54.31 47.7159 54.1328 47.9847H54.1145V44.9985H53.5098V52.4179V52.4179ZM54.7563 52.0005C53.9842 52.0005 54.0587 50.4889 54.0587 49.9042C54.0587 49.478 53.9936 48.0772 54.7282 48.0772C55.3329 48.0772 55.4356 48.8563 55.4356 49.9411C55.4356 51.5737 55.2495 52.0005 54.7563 52.0005Z" fill="#939AA0"/>
<path d="M59.434 50.1645V49.8771C59.434 49.0428 59.2573 47.5869 58.1411 47.5869C56.9879 47.5869 56.8018 49.2003 56.8018 50.0538C56.8018 51.0086 56.9691 52.4926 58.225 52.4926C59.1087 52.4926 59.3876 51.5284 59.397 50.8049H58.7735C58.7735 51.1848 58.6994 51.9266 58.1687 51.9266C57.5082 51.9266 57.4243 50.7768 57.4243 50.3038V50.1645H59.434V50.1645ZM57.4342 49.6541C57.4342 49.2279 57.5645 48.152 58.1411 48.152C58.7735 48.152 58.7923 49.1162 58.8105 49.5709L58.8204 49.6541H57.4342" fill="#939AA0"/>
<path d="M61.9647 48.2174H61.1743V52.4182H60.5696V48.2174H60.0576V47.6607H60.5696V46.3623H61.1743V47.6607H61.9647V48.2174Z" fill="#939AA0"/>
<path d="M64.1038 48.2174H63.3135V52.4182H62.7087V48.2174H62.1973V47.6607H62.7087V46.3623H63.3135V47.6607H64.1038V48.2174Z" fill="#939AA0"/>
<path d="M67.0898 50.1645V49.8771C67.0898 49.0428 66.9131 47.5869 65.7969 47.5869C64.6431 47.5869 64.457 49.2003 64.457 50.0538C64.457 51.0086 64.6249 52.4926 65.8803 52.4926C66.764 52.4926 67.0429 51.5284 67.0523 50.8049H66.4293C66.4293 51.1848 66.3547 51.9266 65.8245 51.9266C65.164 51.9266 65.0801 50.7768 65.0801 50.3038V50.1645H67.0898V50.1645ZM65.0894 49.6541C65.0894 49.2279 65.2198 48.152 65.7969 48.152C66.4293 48.152 66.4475 49.1162 66.4663 49.5709L66.4757 49.6541H65.0894" fill="#939AA0"/>
<path d="M68.5774 48.2909H68.5962C68.7265 47.9567 68.9867 47.5768 69.387 47.5861V48.2909L69.2661 48.2816C68.6426 48.2816 68.5774 48.8845 68.5774 49.6449V52.418H67.9727V47.6604H68.5774V48.2909Z" fill="#939AA0"/>
<path d="M73.9915 52.4179H74.5962V44.9985H73.9915V47.9847H73.9732C73.7871 47.7253 73.5728 47.586 73.2381 47.586C72.1782 47.586 72.0479 48.6895 72.0479 49.9879C72.0479 51.2863 72.1871 52.4917 73.1828 52.4917C73.5269 52.4917 73.7964 52.316 73.9737 52.0467H73.9919V52.4179H73.9915ZM74.0477 49.9603C74.0477 51.2125 73.9919 52.001 73.3502 52.001C72.5781 52.001 72.6709 50.3876 72.6709 49.9416C72.6709 49.2649 72.699 48.0777 73.3783 48.0777C73.9357 48.0772 74.0477 48.875 74.0477 49.9603Z" fill="#939AA0"/>
<path d="M76.224 47.6607H75.6193V52.4183H76.224V47.6607ZM76.3731 46.2506C76.3731 46.0099 76.1683 45.8057 75.9264 45.8057C75.6751 45.8057 75.4707 46.0099 75.4707 46.2506C75.4707 46.5011 75.6751 46.7054 75.9264 46.7054C76.1683 46.7054 76.3731 46.5011 76.3731 46.2506Z" fill="#939AA0"/>
<path d="M79.6567 47.6603H79.052V47.9846H79.0337C78.8476 47.7252 78.6334 47.5859 78.2987 47.5859C77.1454 47.5859 77.1084 48.9213 77.1084 49.9878C77.1084 52.0654 77.4801 52.4916 78.2434 52.4916C78.5875 52.4916 78.857 52.3159 79.0342 52.0467H79.0525V52.4178H79.6572V47.6603H79.6567ZM79.1083 49.9603C79.1083 51.4531 78.9962 52.0009 78.4107 52.0009C78.0572 52.0009 77.7314 51.9084 77.7314 49.9416C77.7314 49.1349 77.7689 48.0776 78.4389 48.0776C79.0337 48.0771 79.1083 48.9306 79.1083 49.9603Z" fill="#939AA0"/>
<path d="M83.1353 47.6603H82.5305V47.9846H82.5123C82.3355 47.7341 82.066 47.5859 81.7402 47.5859C80.6333 47.5859 80.54 49.1344 80.54 49.9322C80.54 50.7763 80.5588 52.4178 81.7495 52.4178C82.066 52.4178 82.3163 52.3159 82.5216 52.0836V52.6403C82.5216 53.1502 82.5774 53.7438 81.8981 53.7438C81.3773 53.7438 81.2564 53.3446 81.2564 52.8997V52.8165H80.661V52.9922C80.661 53.8082 81.0515 54.3093 81.8888 54.3093C83.0978 54.3093 83.1348 53.4839 83.1348 52.594V47.6603H83.1353ZM81.1635 50.1178C81.1635 48.3744 81.4336 48.0771 81.8705 48.0771C82.531 48.0771 82.5868 49.0788 82.5868 49.9509C82.5868 50.9895 82.5587 51.9261 81.9169 51.9261C81.1542 51.9261 81.1635 50.6366 81.1635 50.1178Z" fill="#939AA0"/>
<path d="M84.763 48.0402C85.0044 47.7621 85.3302 47.5859 85.7019 47.5859C86.5486 47.5859 86.6226 48.3646 86.6226 49.0138V52.4173H86.0179V49.0788C86.0179 48.5132 85.9809 48.0771 85.4783 48.0771C84.7901 48.0771 84.7625 48.8282 84.7625 49.3293V52.4173H84.1572V47.6598H84.7625V48.0402H84.763Z" fill="#939AA0"/>
<path d="M88.8743 47.5859C87.6184 47.5859 87.5068 49.1437 87.5068 50.0341C87.5068 50.9338 87.6189 52.4916 88.8743 52.4916C90.1297 52.4916 90.2418 50.9338 90.2418 50.0341C90.2413 49.1437 90.1297 47.5859 88.8743 47.5859ZM88.8743 48.152C89.6 48.152 89.6183 49.5798 89.6183 50.0341C89.6183 50.4977 89.6 51.9261 88.8743 51.9261C88.1486 51.9261 88.1299 50.4982 88.1299 50.0341C88.1299 49.5798 88.1486 48.152 88.8743 48.152Z" fill="#939AA0"/>
<path d="M92.9572 48.6338H92.9385C92.7617 48.3833 92.4828 48.152 92.1476 48.152C91.7852 48.152 91.5522 48.4296 91.5522 48.7825C91.5522 49.2368 91.9432 49.5148 92.3243 49.8303C92.7148 50.1547 93.0964 50.5071 93.0964 51.1287C93.0964 51.8892 92.585 52.4921 91.7941 52.4921C91.4959 52.4921 91.1617 52.3533 90.9287 52.1678V51.4629C91.1617 51.7036 91.4125 51.9261 91.7754 51.9261C92.1945 51.9261 92.4729 51.6017 92.4729 51.2026C92.4729 50.7296 92.0918 50.4141 91.7008 50.071C91.3197 49.7373 90.9287 49.3662 90.9287 48.8007C90.9287 48.0865 91.4036 47.5859 92.1195 47.5859C92.4265 47.5859 92.7148 47.706 92.9567 47.8916V48.6338H92.9572Z" fill="#939AA0"/>
<path d="M94.2125 46.7054C93.9612 46.7054 93.7568 46.5011 93.7568 46.2506C93.7568 46.0099 93.9612 45.8057 94.2125 45.8057C94.4544 45.8057 94.6588 46.0099 94.6588 46.2506C94.6593 46.5011 94.4549 46.7054 94.2125 46.7054ZM94.5107 52.4183H93.9059V47.6607H94.5107V52.4183Z" fill="#939AA0"/>
<path d="M97.3571 48.6338H97.3384C97.1621 48.3833 96.8827 48.152 96.5475 48.152C96.1851 48.152 95.9521 48.4296 95.9521 48.7825C95.9521 49.2368 96.3431 49.5148 96.7242 49.8303C97.1147 50.1547 97.4963 50.5071 97.4963 51.1287C97.4963 51.8892 96.9849 52.4921 96.194 52.4921C95.8968 52.4921 95.5616 52.3533 95.3291 52.1678V51.4629C95.5616 51.7036 95.8129 51.9261 96.1753 51.9261C96.5944 51.9261 96.8728 51.6017 96.8728 51.2026C96.8728 50.7296 96.4917 50.4141 96.1012 50.071C95.7201 49.7373 95.3296 49.3662 95.3296 48.8007C95.3296 48.0865 95.804 47.5859 96.5198 47.5859C96.8269 47.5859 97.1152 47.706 97.3571 47.8916V48.6338Z" fill="#939AA0"/>
<path d="M9.34894 31.6858C9.30401 31.797 9.19294 31.8856 9.16924 31.8856C9.1026 31.8856 8.00713 31.3063 6.57696 31.3063C5.72537 31.3063 5.10037 31.6174 5.10037 32.3763C5.10037 33.5812 7.11259 33.4916 8.70025 34.539C9.57307 35.1193 10.1986 35.9664 10.1986 37.2589C10.1986 39.3113 8.74517 40.8484 6.37455 40.8484C4.72024 40.8484 2.16992 40.0009 2.16992 39.4009C2.16992 39.3335 2.25977 39.2006 2.28149 39.1115L2.77418 37.8397C2.8191 37.7284 2.86403 37.6393 2.95289 37.6393C3.04274 37.6393 4.76468 38.6193 6.15091 38.6193C6.88896 38.6193 7.51593 38.3082 7.51593 37.504C7.51593 36.211 5.3245 36.211 3.84743 35.2301C3.17751 34.7846 2.52882 34.004 2.52882 32.7105C2.52882 30.6807 4.07106 29.0767 6.48661 29.0767C7.85113 29.0767 9.97541 29.6555 9.97541 30.1688C9.97541 30.2363 9.90778 30.3696 9.86285 30.4582L9.34894 31.6858Z" fill="#939AA0"/>
<path d="M38.8448 40.1589C38.8448 40.4045 38.7999 40.4699 38.5328 40.4699H36.3182C36.0496 40.4699 36.0042 40.4045 36.0042 40.1589V33.2898C36.0042 32.4428 35.9163 31.4175 35.0652 31.4175C34.1263 31.4175 33.3882 32.0638 33.098 32.3315V40.1589C33.098 40.4045 33.053 40.4699 32.785 40.4699H30.5713C30.3028 40.4699 30.2583 40.4045 30.2583 40.1589V33.2898C30.2583 32.4428 30.1685 31.4175 29.3194 31.4175C28.3804 31.4175 27.6424 32.0638 27.3521 32.3315V40.1589C27.3521 40.4045 27.3062 40.4699 27.0381 40.4699H24.8235C24.5559 40.4699 24.5115 40.4045 24.5115 40.1589V33.4247C24.5115 30.2811 24.0869 30.4587 24.0869 29.9454C24.0869 29.8341 24.1768 29.7455 24.3328 29.7008L26.0315 29.1436C26.1653 29.0993 26.2778 29.0771 26.3677 29.0771C26.6585 29.0771 26.8372 29.5669 27.083 30.6148C27.7534 30.035 28.7373 29.0771 30.5042 29.0771C31.4659 29.0771 32.5179 29.6786 32.7855 30.6148C33.4569 30.035 34.418 29.0771 36.252 29.0771C38.3536 29.0771 38.8453 30.6595 38.8453 32.5998V40.1589H38.8448Z" fill="#939AA0"/>
<path d="M44.522 40.2701C44.991 40.5157 45.5503 40.8489 46.8472 40.8489C49.7545 40.8489 50.9615 38.6651 50.9615 34.7625C50.9615 31.0164 49.5762 29.0776 47.0935 29.0776C45.5952 29.0776 44.7224 29.7682 44.2307 30.2367C43.9854 29.5004 43.8284 29.0776 43.5376 29.0776C43.4478 29.0776 43.3367 29.0998 43.2024 29.1441L41.5027 29.7012C41.3467 29.746 41.2568 29.8346 41.2568 29.9459C41.2568 30.4592 41.6814 30.2815 41.6814 33.4252V44.7299C41.6814 45.1084 41.7258 45.1979 41.8369 45.1979C41.9505 45.1979 42.1509 45.1546 42.2185 45.1295L44.0969 44.7515C44.366 44.7072 44.522 44.6619 44.522 44.3509V40.2701ZM44.522 32.1534C44.835 31.8639 45.3716 31.3063 46.3106 31.3063C47.6968 31.3063 48.1219 32.5771 48.1219 34.8732C48.1219 37.504 47.7195 38.6188 46.1536 38.6188C45.2813 38.6188 44.9248 38.419 44.522 38.197V32.1534Z" fill="#939AA0"/>
<path d="M60.1746 39.8231C60.1968 39.9343 60.2196 39.9343 60.2196 40.0013C60.2196 40.426 58.5865 40.8488 57.066 40.8488C54.1809 40.8488 54.1809 38.598 54.1809 36.5461V31.5301H52.5928C52.3247 31.5301 52.2803 31.4617 52.2803 31.2171V29.7681C52.2803 29.5225 52.3247 29.456 52.5928 29.456H54.1809V26.6466C54.1809 26.3562 54.2258 26.2898 54.5388 26.245L56.5071 25.9777C56.5747 25.9777 56.6626 25.9556 56.7974 25.9556C56.9988 25.9556 57.0205 26.0673 57.0205 26.3346V29.4565H59.5704C59.7713 29.4565 59.9505 29.4565 59.9505 29.7012C59.9505 29.7459 59.9505 29.7902 59.9288 29.8793L59.637 31.195C59.5699 31.507 59.5027 31.5306 59.2352 31.5306H57.0205V36.926C57.0205 37.6397 57.0205 38.287 57.7813 38.287C58.6758 38.287 59.2352 37.8622 59.5477 37.8622C59.6375 37.8622 59.7046 37.908 59.7264 37.9966L60.1746 39.8231Z" fill="#939AA0"/>
<path d="M70.9088 34.9623C70.9088 31.3732 69.0525 29.0776 66.0569 29.0776C63.0371 29.0776 61.2041 31.3732 61.2041 34.9623C61.2041 38.5543 63.0371 40.8489 66.0569 40.8489C69.0752 40.8489 70.9088 38.5543 70.9088 34.9623ZM66.0569 38.6193C64.491 38.6193 64.2229 37.0364 64.2229 34.9618C64.2229 32.8892 64.5132 31.3063 66.0569 31.3063C67.5987 31.3063 67.8899 32.8892 67.8899 34.9618C67.8899 37.0595 67.6229 38.6193 66.0569 38.6193Z" fill="#939AA0"/>
<path d="M87.815 40.1589C87.815 40.4045 87.7701 40.4699 87.5016 40.4699H85.2879C85.0199 40.4699 84.9754 40.4045 84.9754 40.1589V33.2898C84.9754 32.4428 84.8856 31.4175 84.0365 31.4175C83.0975 31.4175 82.359 32.0638 82.0687 32.3315V40.1589C82.0687 40.4045 82.0242 40.4699 81.7552 40.4699H79.5406C79.273 40.4699 79.2281 40.4045 79.2281 40.1589V33.2898C79.2281 32.4428 79.1387 31.4175 78.2886 31.4175C77.3496 31.4175 76.6116 32.0638 76.3213 32.3315V40.1589C76.3213 40.4045 76.2764 40.4699 76.0073 40.4699H73.7942C73.5251 40.4699 73.4807 40.4045 73.4807 40.1589V33.4247C73.4807 30.2811 73.0566 30.4587 73.0566 29.9454C73.0566 29.8341 73.146 29.7455 73.3015 29.7008L75.0017 29.1436C75.1355 29.0993 75.2471 29.0771 75.3379 29.0771C75.6282 29.0771 75.8064 29.5669 76.0523 30.6148C76.7232 30.035 77.7075 29.0771 79.4744 29.0771C80.4366 29.0771 81.4871 29.6786 81.7557 30.6148C82.4261 30.035 83.3883 29.0771 85.2213 29.0771C87.3233 29.0771 87.816 30.6595 87.816 32.5998V40.1589H87.815Z" fill="#939AA0"/>
<path d="M98.9522 40.0698C99.0638 40.0235 99.1526 39.9585 99.1526 39.87C99.1526 39.423 98.5721 39.1336 98.5721 36.97V32.6662C98.5721 30.3475 97.5201 29.0771 94.7249 29.0771C93.0029 29.0771 90.7898 29.6112 90.7898 30.1245C90.7898 30.2136 90.812 30.3027 90.8564 30.3918L91.3037 31.7522C91.3259 31.8418 91.4153 31.9752 91.5283 31.9752C91.8186 31.9752 93.0479 31.3068 94.3003 31.3068C95.7088 31.3068 95.8885 31.953 95.8885 32.9561V33.6481C94.1211 33.6481 90.0518 33.6481 90.0518 37.4154C90.0518 39.5126 91.3486 40.8494 93.4063 40.8494C95.0833 40.8494 95.8663 39.959 96.313 39.5126C96.4251 40.0703 96.7608 40.8494 96.9617 40.8494C97.0511 40.8494 97.1631 40.7844 97.252 40.7598L98.9522 40.0698ZM95.889 37.9287C95.6199 38.1975 95.0393 38.7763 94.2115 38.7763C93.3618 38.7763 92.7364 38.1296 92.7364 37.2594C92.7364 35.298 95.3301 35.4757 95.8895 35.4757V37.9287" fill="#939AA0"/>
<path fill-rule="evenodd" clip-rule="evenodd" d="M20.0759 8.03063C20.3025 8.01833 20.5385 7.9952 20.7364 8.0769C21.0899 8.23046 21.8941 8.60256 22.1459 8.9845C22.172 9.00862 22.5492 9.83846 22.6025 9.88817C23.0962 10.3971 23.2951 11.4627 23.2369 12.4294C23.2008 13.0392 23.0014 13.2425 22.9659 13.2907C22.9343 13.3325 22.8839 13.365 22.8839 13.365C22.9644 13.4167 23.0908 13.5161 23.1954 13.653C23.6264 14.2116 23.0216 16.5879 22.4919 17.0191C22.1982 17.2543 22.0466 17.1534 22.0466 16.992C20.8554 20.9709 20.6535 23.5987 21.4226 24.8651C22.0126 25.8372 22.9002 26.1724 25.0388 26.5203C26.2379 26.7143 27.9021 26.984 29.1551 27.1627C29.9222 27.2724 32.1586 28.2494 32.6266 28.4497H32.9741C32.3585 27.6795 29.2992 26.6424 29.0292 26.3953C28.7591 26.1463 28.3183 25.9779 27.9737 25.9135C27.3112 25.788 24.9307 25.4311 23.8505 25.2052C23.0621 25.0418 22.3167 24.966 21.8808 24.243C20.7468 22.3559 22.5428 18.1157 22.6336 17.7829C22.6336 17.9754 22.875 18.0423 23.1441 17.8002C23.8505 17.0973 24.5101 14.3578 24.0993 13.6928C24.0065 13.5432 23.89 13.427 23.7967 13.3626L23.8688 13.271C24.5787 12.1404 24.519 9.40927 23.5652 8.42439C23.5 8.36729 23.0537 7.38832 23.0241 7.35879C22.7269 6.904 21.7702 6.46841 21.3545 6.28286C21.1827 6.20509 20.9294 6.19229 20.6752 6.21936C19.835 5.40725 18.701 5.03613 17.0857 5.03613C15.1737 5.03613 14.3419 5.66073 12.8169 6.28286C12.3983 6.46448 11.444 6.904 11.1468 7.35879C11.1172 7.38783 10.6709 8.36729 10.6062 8.42439C9.65145 9.40927 9.59172 12.1404 10.3016 13.271L10.3737 13.3626C10.2804 13.427 10.1639 13.5432 10.0711 13.6928C9.66034 14.3578 10.3199 17.0973 11.0263 17.8002C11.2954 18.0423 11.5368 17.9749 11.5368 17.7829C11.6281 18.1157 13.4241 22.3559 12.2901 24.243C11.8537 24.966 11.1078 25.0418 10.3199 25.2052C9.23973 25.4311 6.85923 25.788 6.19672 25.9135C5.85263 25.9784 5.41128 26.1468 5.14124 26.3953C4.8712 26.6424 1.8119 27.6795 1.19629 28.4497H1.54384C2.01184 28.2494 4.24868 27.2719 5.01536 27.1627C6.2683 26.9845 7.93297 26.7143 9.13161 26.5203C11.2707 26.1724 12.1583 25.8367 12.7478 24.8651C13.5174 23.5987 13.3155 20.9709 12.1243 16.992C12.1243 17.1534 11.9722 17.2538 11.679 17.0191C11.1493 16.5879 10.544 14.2116 10.975 13.653C11.0797 13.5161 11.2065 13.4172 11.2865 13.365C11.2865 13.365 11.2366 13.3325 11.2046 13.2907C11.1695 13.2425 10.9701 13.0392 10.9335 12.4294C10.8758 11.4627 11.0747 10.3971 11.5679 9.88817C11.6212 9.83846 11.9984 9.00862 12.0245 8.9845C12.2768 8.60305 13.081 8.23096 13.434 8.0769C14.7215 7.54976 15.7103 7.02607 17.0852 7.02607C18.2483 7.02607 19.1547 7.15108 20.0759 8.03063Z" fill="#939AA0"/>
<path d="M21.441 29.0163C20.3845 29.0163 20.1031 29.9456 19.9333 30.5057C19.8735 30.7119 19.7975 30.9974 19.7072 31.3385C19.2485 33.0621 18.2099 36.9682 17.1065 37.9722C16.0224 36.9795 14.9689 33.1261 14.5038 31.4251C14.3972 31.0338 14.3078 30.7075 14.2412 30.4889C14.1079 30.0036 13.8305 28.9937 12.732 28.9937C12.0014 28.9937 11.4707 29.5065 11.4707 30.2128C11.4707 31.0722 12.9621 37.5795 14.6791 39.2706C15.1145 39.6861 15.47 40.0055 15.8254 40.257V49.3163C15.8254 50.2032 16.3161 50.754 17.106 50.754C17.8979 50.754 18.3896 50.2027 18.3896 49.3163V40.257C18.7485 40.0015 19.1128 39.6728 19.5373 39.2667C21.2711 37.5627 22.7023 31.1239 22.7023 30.234C22.7018 29.5287 22.1716 29.0163 21.441 29.0163Z" fill="#939AA0"/>
<path d="M47.3309 46.3346C45.3083 46.3346 43.6624 47.976 43.6624 49.9945C43.6624 50.216 43.6856 50.4316 43.7236 50.6422C36.6305 51.5395 32.3345 47.5847 29.4421 44.919C27.8218 43.4257 26.6513 42.3454 25.4951 42.7371C24.5483 43.0571 23.9781 44.2497 23.5278 46.8524C22.458 53.0382 19.96 59.5401 18.9762 59.7016C18.8675 59.6513 17.9088 58.9874 17.7336 51.3141C17.5539 51.4096 17.3451 51.4662 17.1046 51.4662C16.881 51.4662 16.6371 51.4184 16.4658 51.3348C16.6549 59.6504 17.7291 60.874 18.8621 60.9576C18.8893 60.9601 18.9159 60.9611 18.9431 60.9611C22.1169 60.9611 24.7526 47.2077 24.7763 47.0675C25.233 44.4288 25.7153 43.9972 25.9014 43.9342C26.3423 43.7855 27.532 44.8806 28.5806 45.8473C31.5031 48.5411 36.3199 52.9748 44.1782 51.8565C44.8185 52.9295 45.9895 53.652 47.3299 53.652C49.3529 53.652 50.9989 52.0115 50.9989 49.995C50.9998 47.976 49.3539 46.3346 47.3309 46.3346Z" fill="#939AA0"/>
<path fill-rule="evenodd" clip-rule="evenodd" d="M12.4294 23.4743C12.4703 23.4743 12.5315 23.4748 12.5804 23.4738C12.6614 23.0987 12.6767 22.6858 12.6564 22.2551C12.5809 22.2487 12.498 22.2527 12.4234 22.2527C11.1522 22.2527 10.5455 22.9407 10.8708 24.5896C10.9962 25.2245 11.2687 26.7931 11.7175 28.6177C12.0087 28.4459 12.3528 28.3435 12.7325 28.3435C12.7927 28.3435 12.8475 28.3534 12.9058 28.3568C12.4264 26.4146 12.1415 24.7879 12.0719 24.4848C11.8666 23.6013 11.872 23.4743 12.4294 23.4743Z" fill="#939AA0"/>
<path fill-rule="evenodd" clip-rule="evenodd" d="M21.748 22.252C21.6735 22.252 21.591 22.2485 21.5155 22.2544C21.4953 22.6851 21.5106 23.0985 21.5915 23.4731C21.6404 23.4741 21.7006 23.4736 21.7416 23.4736C22.2995 23.4736 22.3044 23.6006 22.0995 24.4841C22.0294 24.7887 21.7421 26.4297 21.2588 28.3837C21.3205 28.3788 21.3753 28.365 21.4414 28.365C21.8186 28.365 22.1597 28.4659 22.4495 28.6357C22.9008 26.8018 23.1733 25.2268 23.2996 24.5889C23.626 22.9401 23.0192 22.252 21.748 22.252Z" fill="#939AA0"/>
<path d="M47.3316 52.3648C46.0204 52.3648 44.9541 51.3012 44.9541 49.9939C44.9541 48.6867 46.0209 47.6235 47.3316 47.6235C48.6423 47.6235 49.7087 48.6867 49.7087 49.9939C49.7087 51.3017 48.6423 52.3648 47.3316 52.3648ZM47.3316 48.5715C46.5447 48.5715 45.9044 49.2094 45.9044 49.9939C45.9044 50.7785 46.5447 51.4169 47.3316 51.4169C48.1181 51.4169 48.7584 50.7785 48.7584 49.9939C48.7584 49.2099 48.1181 48.5715 47.3316 48.5715Z" fill="white"/>
</g>
<defs>
<clipPath id="clip0">
<path d="M0 0H99V66H0V0Z" fill="white"/>
</clipPath>
</defs>
</svg>
